{"asset":{"copyright":"","generator":"SharpGLTF 1.0.0+2803c34b2c2f2d7c2034e6633700c46447876a0f","version":"2.0"},"extensionsUsed":["EXT_lslib_profile"],"accessors":[{"name":"POSITION","bufferView":0,"componentType":5126,"count":1481,"max":[53.905696868896484,44.71086883544922,157.44839477539062],"min":[-54.37164306640625,-24.216411590576172,0.044348716735839844],"type":"VEC3"},{"name":"NORMAL","bufferView":0,"byteOffset":12,"componentType":5126,"count":1481,"max":[0.9999122023582458,0.9998501539230347,0.9793182015419006],"min":[-0.9989612102508545,-0.999838650226593,-0.9999954104423523],"type":"VEC3"},{"name":"TEXCOORD_0","bufferView":0,"byteOffset":24,"componentType":5126,"count":1481,"max":[0.9984986186027527,0.993118166923523],"min":[0.016187097877264023,0.007621049880981445],"type":"VEC2"},{"name":"JOINTS_0","bufferView":0,"byteOffset":32,"componentType":5121,"count":1481,"type":"VEC4"},{"name":"WEIGHTS_0","bufferView":0,"byteOffset":36,"componentType":5126,"count":1481,"max":[1,0.49803921580314636,0.3333333432674408,0.23137255012989044],"min":[0.25882354378700256,0,0,0],"type":"VEC4"},{"bufferView":1,"componentType":5123,"count":6786,"type":"SCALAR"},{"name":"POSITION","bufferView":0,"byteOffset":96148,"componentType":5126,"count":150,"max":[11.86617374420166,7.46293830871582,152.8015899658203],"min":[-11.866168975830078,-7.501166343688965,141.86134338378906],"type":"VEC3"},{"name":"NORMAL","bufferView":0,"byteOffset":96160,"componentType":5126,"count":150,"max":[0.9376378655433655,0.993328332901001,0.8988261222839355],"min":[-0.9376389384269714,-0.8856197595596313,-0.5337414145469666],"type":"VEC3"},{"name":"TEXCOORD_0","bufferView":0,"byteOffset":96172,"componentType":5126,"count":150,"max":[0.3246912658214569,0.9954530000686646],"min":[0.11922571063041687,0.017561495304107666],"type":"VEC2"},{"name":"JOINTS_0","bufferView":0,"byteOffset":96180,"componentType":5121,"count":150,"type":"VEC4"},{"name":"WEIGHTS_0","bufferView":0,"byteOffset":96184,"componentType":5126,"count":150,"max":[1,0.4941176474094391,0.26274511218070984,0.16470588743686676],"min":[0.29411765933036804,0,0,0],"type":"VEC4"},{"bufferView":1,"byteOffset":17496,"componentType":5123,"count":396,"type":"SCALAR"},{"name":"POSITION","bufferView":0,"byteOffset":77012,"componentType":5126,"count":368,"max":[7.209875106811523,2.7367472648620605,168.01333618164062],"min":[-7.209874629974365,-8.50320816040039,151.67208862304688],"type":"VEC3"},{"name":"NORMAL","bufferView":0,"byteOffset":77024,"componentType":5126,"count":368,"max":[0.9898087978363037,0.9548975825309753,0.8906577229499817],"min":[-0.9898088574409485,-0.9999995827674866,-0.9984714388847351],"type":"VEC3"},{"name":"TEXCOORD_0","bufferView":0,"byteOffset":77036,"componentType":5126,"count":368,"max":[0.8489543795585632,0.9857261776924133],"min":[0.020434211939573288,0.009710550308227539],"type":"VEC2"},{"name":"JOINTS_0","bufferView":0,"byteOffset":77044,"componentType":5121,"count":368,"type":"VEC4"},{"name":"WEIGHTS_0","bufferView":0,"byteOffset":77048,"componentType":5126,"count":368,"max":[1,0,0,0],"min":[1,0,0,0],"type":"VEC4"},{"bufferView":1,"byteOffset":13572,"componentType":5123,"count":1962,"type":"SCALAR"},{"name":"Bind Matrices","bufferView":2,"componentType":5126,"count":102,"max":[0.9996699094772339,1,1,0,0.9889174103736877,0.9999111294746399,0.9998760223388672,0,1,1,1,0,160.40463256835938,143.6217041015625,139.80210876464844,1],"min":[-0.999419629573822,-0.9989222288131714,-1,0,-1,-1,-1,0,-1.0876511335372925,-0.9994195699691772,-0.9691941142082214,0,-168.821533203125,-143.6216583251953,-139.8032989501953,1],"type":"MAT4"},{"name":"Bind Matrices","bufferView":3,"componentType":5126,"count":102,"max":[0.9996699094772339,1,1,0,0.9889174103736877,0.9999111294746399,0.9998760223388672,0,1,1,1,0,160.40463256835938,143.6217041015625,139.80210876464844,1],"min":[-0.999419629573822,-0.9989222288131714,-1,0,-1,-1,-1,0,-1.0876511335372925,-0.9994195699691772,-0.9691941142082214,0,-168.821533203125,-143.6216583251953,-139.8032989501953,1],"type":"MAT4"},{"name":"Bind Matrices","bufferView":4,"componentType":5126,"count":102,"max":[0.9996699094772339,1,1,0,0.9889174103736877,0.9999111294746399,0.9998760223388672,0,1,1,1,0,160.40463256835938,143.6217041015625,139.80210876464844,1],"min":[-0.999419629573822,-0.9989222288131714,-1,0,-1,-1,-1,0,-1.0876511335372925,-0.9994195699691772,-0.9691941142082214,0,-168.821533203125,-143.6216583251953,-139.8032989501953,1],"type":"MAT4"}],"bufferViews":[{"buffer":0,"byteLength":103948,"byteStride":52,"target":34962},{"buffer":0,"byteLength":18288,"byteOffset":103948,"target":34963},{"buffer":0,"byteLength":6528,"byteOffset":122236},{"buffer":0,"byteLength":6528,"byteOffset":128764},{"buffer":0,"byteLength":6528,"byteOffset":135292}],"buffers":[{"byteLength":141820,"uri":"lslib_patched_out.bin"}],"materials":[{"name":"Dummy","pbrMetallicRoughness":{}}],"meshes":[{"name":"sura_novice_red_1","primitives":[{"attributes":{"POSITION":0,"NORMAL":1,"TEXCOORD_0":2,"JOINTS_0":3,"WEIGHTS_0":4},"indices":5,"material":0}]},{"extensions":{"EXT_lslib_profile":{"Rigid":false,"Cloth":false,"MeshProxy":false,"ProxyGeometry":false,"Spring":false,"Occluder":false,"ClothPhysics":false,"Cloth01":false,"Cloth02":false,"Cloth04":false,"Impostor":false,"ExportOrder":-1,"LOD":0,"LODDistance":0,"ParentBone":""}},"name":"sura_novice_red","primitives":[{"attributes":{"POSITION":6,"NORMAL":7,"TEXCOORD_0":8,"JOINTS_0":9,"WEIGHTS_0":10},"indices":11,"material":0}]},{"extensions":{"EXT_lslib_profile":{"Rigid":false,"Cloth":false,"MeshProxy":false,"ProxyGeometry":false,"Spring":false,"Occluder":false,"ClothPhysics":false,"Cloth01":false,"Cloth02":false,"Cloth04":false,"Impostor":false,"ExportOrder":-1,"LOD":0,"LODDistance":0,"ParentBone":""}},"name":"sura_face","primitives":[{"attributes":{"POSITION":12,"NORMAL":13,"TEXCOORD_0":14,"JOINTS_0":15,"WEIGHTS_0":16},"indices":17,"material":0}]}],"nodes":[{"name":"Bip01","children":[1],"rotation":[0,0,-0.70710623,0.7071073],"translation":[0.0027304085,-0.5457734,98.48546]},{"name":"Bip01 Pelvis","children":[2],"rotation":[-0.49999934,-0.5,-0.5,0.50000066],"translation":[-1.6163033,9.9418685e-8,0]},{"name":"Bip01 Spine","children":[3,79,82,85,88,92,97],"rotation":[-0.0000021401809,-7.1753345e-7,0.113598995,0.9935267],"translation":[6.5021744,-0.009683728,0.000008560251]},{"name":"Bip01 Spine1","children":[4],"rotation":[-1.2166962e-9,2.8117725e-7,-0.10886678,0.99405634],"scale":[1.0000001,1.0000001,1],"translation":[12.487747,-0.007188797,9.697396e-7]},{"name":"Bip01 Spine2","children":[5,75,77],"rotation":[2.719937e-9,1.6851561e-7,-0.065403275,0.99785894],"translation":[9.246056,-0.013455749,6.0675666e-7]},{"name":"Bip01 Neck","children":[6,37,67],"rotation":[-6.8419106e-9,-4.4461962e-7,0.16983557,0.98547244],"scale":[0.99999994,0.9999999,1],"translation":[21.66954,-2.2321358,-0.0000014444813]},{"name":"Bip01 R Clavicle","children":[7,31,33],"rotation":[-0.6171019,0.106602855,0.7682498,0.1327154],"scale":[1,1.0000002,1.0000002],"translation":[-4.0402527,1.7402916,-2.9506114]},{"name":"Bip01 R UpperArm","children":[8],"rotation":[-0.049953848,-0.32424837,0.025503613,0.9443078],"scale":[0.9999997,0.99999994,0.9999998],"translation":[12.761926,9.536743e-7,0]},{"name":"Bip01 R Forearm","children":[9],"rotation":[-3.0298495e-9,3.7290448e-8,-0.044865213,0.99899304],"scale":[1.0000001,1,1.0000002],"translation":[23.679626,-1.1920929e-7,0]},{"name":"Bip01 R Hand","children":[10,11,15,19,23,27],"rotation":[0.7010914,0.08987855,-0.028360857,0.70681566],"scale":[1,0.99999994,1],"translation":[22.242664,9.536743e-7,0]},{"name":"equip_right","rotation":[2.9336664e-7,6.2980696e-8,1.3411048e-7,1],"scale":[0.9999999,0.9999999,0.9999999],"translation":[7.023018,1.8329773,1.2191694]},{"name":"Bip01 R Finger4","children":[12],"rotation":[0.000374751,-0.00013457298,0.33791652,0.941176],"scale":[0.9999998,0.9999998,0.9999998],"translation":[8.269962,-0.107414246,-3.1792488]},{"name":"Bip01 R Finger41","children":[13],"rotation":[-1.8496452e-8,3.575981e-8,0.32969072,0.944089],"scale":[1,1.0000001,1.0000001],"translation":[3.4036407,-0.0000076293945,-1.1920929e-7]},{"name":"Bip01 R Finger42","children":[14],"rotation":[4.3594845e-8,7.481622e-9,0.58763146,0.8091287],"scale":[0.9999999,0.99999994,1],"translation":[1.9748306,7.1525574e-7,-2.3841858e-7]},{"name":"Bip01 R Finger4Nub","rotation":[3.7252894e-9,1,2.3283067e-10,5.820769e-10],"scale":[-1.0000002,1.0000002,0.99999994],"translation":[2.9175148,0,2.3841858e-7]},{"name":"Bip01 R Finger3","children":[16],"rotation":[0.0003879101,-0.000089561545,0.22495101,0.97437],"scale":[1,0.9999999,0.99999994],"translation":[8.461231,0.00060272217,-1.2451323]},{"name":"Bip01 R Finger31","children":[17],"rotation":[1.671648e-8,-5.1454442e-8,0.35020733,0.9366722],"scale":[1,1,0.9999999],"translation":[3.943016,0.0000076293945,8.940697e-8]},{"name":"Bip01 R Finger32","children":[18],"rotation":[-9.290134e-9,-8.289659e-9,0.5801362,0.8145195],"scale":[0.99999994,1,1],"translation":[2.756012,0.0000038146973,5.9604645e-8]},{"name":"Bip01 R Finger3Nub","rotation":[1,4.6566134e-10,-1.4551915e-11,-4.656613e-10],"scale":[0.9999999,-0.99999994,0.99999994],"translation":[3.5010262,-0.0000076293945,-8.940697e-8]},{"name":"Bip01 R Finger2","children":[20],"rotation":[0.00038742143,-0.00009171337,0.23031692,0.9731156],"scale":[0.9999999,0.9999999,0.9999998],"translation":[8.466415,-0.0005645752,0.9616027]},{"name":"Bip01 R Finger21","children":[21],"rotation":[1.1770029e-8,-1.5526421e-8,0.36822256,0.9297377],"translation":[4.3615646,-0.0000076293945,2.3841858e-7]},{"name":"Bip01 R Finger22","children":[22],"rotation":[4.1676472e-8,2.1369146e-8,0.4803092,0.8770992],"scale":[0.99999994,1.0000001,1.0000001],"translation":[3.099228,-0.000008583069,2.3841858e-7]},{"name":"Bip01 R Finger2Nub","rotation":[1,7.4505793e-9,1.110223e-16,-2.3283075e-10],"scale":[1.0000001,-1.0000002,1],"translation":[4.0845337,0,-2.3841858e-7]},{"name":"Bip01 R Finger1","children":[24],"rotation":[0.0037075887,-0.02163889,0.19509998,0.98053765],"scale":[0.99999994,0.99999994,0.99999994],"translation":[8.470512,-0.001625061,3.089086]},{"name":"Bip01 R Finger11","children":[25],"rotation":[1.7136883e-9,3.5253017e-8,0.3090172,0.9510564],"scale":[1.0000001,1,1.0000001],"translation":[4.2158012,0,-0.0000014305115]},{"name":"Bip01 R Finger12","children":[26],"rotation":[1.4638133e-9,-1.7565762e-8,0.29870483,0.9543455],"scale":[1,1.0000001,1.0000001],"translation":[2.7452621,0,-9.536743e-7]},{"name":"Bip01 R Finger1Nub","rotation":[-1.49012e-8,1,9.3131547e-10,4.6185278e-14],"scale":[-1.0000006,0.99999976,0.9999997],"translation":[3.5010223,0.000005722046,-0.0000014305115]},{"name":"Bip01 R Finger0","children":[28],"rotation":[-0.6425241,-0.3922649,0.03827226,0.6571349],"scale":[0.9999999,1,1],"translation":[1.4256973,1.5946274,1.8153375]},{"name":"Bip01 R Finger01","children":[29],"rotation":[-1.13651035e-8,-3.0306943e-8,0.18172307,0.98334974],"scale":[0.99999994,0.99999994,0.9999999],"translation":[3.9549866,0.0000076293945,0.0000076293945]},{"name":"Bip01 R Finger02","children":[30],"rotation":[1.14343175e-8,-2.7840079e-8,0.35020736,0.9366722],"scale":[1.0000001,1,1.0000001],"translation":[3.8543396,9.536743e-7,-0.0000076293945]},{"name":"Bip01 R Finger0Nub","rotation":[1.1175921e-8,7.4505717e-9,1.4210855e-14,1],"scale":[1.0000002,1,-1.0000005],"translation":[3.8231392,-0.0000038146973,0]},{"name":"Bone21(mirrored)","children":[32],"rotation":[0.6572316,0.09244308,-0.0845419,0.74320495],"scale":[0.99999976,0.99999976,0.99999994],"translation":[3.8131046,0.17986107,-1.5104828]},{"name":"Bone22(mirrored)","rotation":[3.937746e-8,1.6282826e-7,4.339962e-7,1],"scale":[1.0000002,1.0000002,1],"translation":[23.546452,-0.000015258789,0.000015258789]},{"name":"Bone05","children":[34],"rotation":[0.7890999,0.11901972,0.59417605,0.10055122],"scale":[0.9009686,-1,0.9999999],"translation":[5.2626247,6.321203,-4.23526]},{"name":"Bone06","children":[35],"rotation":[0.0003465488,0.0025202057,-0.010686015,0.9999397],"scale":[1.1942291,1,0.99999994],"translation":[32.166542,-0.0000076293945,0.0000019073486]},{"name":"Bone07","children":[36],"rotation":[-0.0000695063,0.00069373584,-0.0046309778,0.99998903],"scale":[1,1,0.99999994],"translation":[25.884361,0.00005722046,0.000005722046]},{"name":"Bone08","rotation":[-0.00019386486,-0.0057427585,0.026949907,0.99962026],"scale":[1,0.99999994,1],"translation":[27.757507,-0.0000038146973,0.0000019073486]},{"name":"Bip01 L Clavicle","children":[38,40,44],"rotation":[0.6171022,-0.10660498,0.7682495,0.13271369],"scale":[1,1.0000001,1],"translation":[-4.040222,1.7402687,2.9506097]},{"name":"Bone21","children":[39],"rotation":[0.74320495,-0.08454345,0.09244279,0.6572314],"scale":[1,0.99999994,0.99999994],"translation":[3.8076115,0.17984009,1.5092621]},{"name":"Bone22","translation":[23.546444,0.000015258789,0.0000030994415]},{"name":"Bone01","children":[41],"rotation":[0.100535884,0.5940106,0.12027625,0.78903586],"scale":[0.9009692,0.9999998,0.99999976],"translation":[5.257324,6.321184,4.2340546]},{"name":"Bone02","children":[42],"rotation":[0.00034606634,0.002519924,-0.010681723,0.99993974],"scale":[1.1942289,1,0.99999994],"translation":[32.16655,0,0.0000019073486]},{"name":"Bone03","children":[43],"rotation":[-0.00006949908,0.0006942723,-0.004632382,0.99998903],"translation":[25.884369,0.00005340576,0]},{"name":"Bone04","rotation":[-0.00019384296,-0.0057429206,0.026951088,0.99962026],"scale":[1,1,1.0000001],"translation":[27.7575,-0.0000076293945,0.0000019073486]},{"name":"Bip01 L UpperArm","children":[45],"rotation":[0.049953848,0.32424837,0.02550361,0.9443078],"scale":[1,1.0000001,1.0000001],"translation":[12.761925,9.536743e-7,0]},{"name":"Bip01 L Forearm","children":[46],"rotation":[-2.2141209e-9,1.4916182e-8,-0.044865213,0.99899304],"scale":[1,0.99999994,1],"translation":[23.67965,-1.1920929e-7,-0.0000076293945]},{"name":"Bip01 L Hand","children":[47,51,55,59,63],"rotation":[-0.7027801,-0.0755317,-0.013932932,0.70724887],"scale":[1.0000001,1.0000001,1.0000002],"translation":[22.24266,0,-0.0000076293945]},{"name":"Bip01 L Finger4","children":[48],"rotation":[-0.08231087,-0.112499215,0.32942972,0.9338335],"scale":[0.9999999,1.0000001,1],"translation":[8.999641,-0.38737488,3.0759304]},{"name":"Bip01 L Finger41","children":[49],"rotation":[4.409768e-8,1.3100634e-8,0.097265884,0.9952584],"scale":[1,0.9999999,0.99999994],"translation":[3.9528275,0,5.9604645e-7]},{"name":"Bip01 L Finger42","children":[50],"rotation":[-5.6645153e-8,2.2424473e-8,0.08047495,0.9967567],"translation":[3.1798782,-0.0000038146973,5.364418e-7]},{"name":"Bip01 L Finger4Nub","rotation":[-5.122275e-9,-1.8626454e-9,0,1],"scale":[1,0.99999994,0.99999994],"translation":[4.6978455,-0.0000076293945,-8.940697e-7]},{"name":"Bip01 L Finger3","children":[52],"rotation":[-0.014690807,-0.033394687,0.33408388,0.941837],"scale":[0.99999976,0.9999998,0.9999999],"translation":[8.870983,-0.6403122,1.2213024]},{"name":"Bip01 L Finger31","children":[53],"rotation":[-3.9328267e-8,1.3066887e-8,0.06586004,0.99782884],"translation":[3.9430008,0,2.3841858e-7]},{"name":"Bip01 L Finger32","children":[54],"rotation":[1.7599454e-8,1.7727013e-8,0.059949614,0.99820143],"scale":[0.99999994,1,1],"translation":[4.095047,0.0000076293945,4.7683716e-7]},{"name":"Bip01 L Finger3Nub","rotation":[-4.0745363e-10,0,-5.5879354e-9,1],"scale":[0.99999994,1,1],"translation":[6.383812,0,-1.1920929e-7]},{"name":"Bip01 L Finger2","children":[56],"rotation":[-0.00038081966,0.000116050534,0.29159588,0.95654154],"scale":[0.9999998,1,0.99999994],"translation":[9.118362,-0.38004303,-1.1154076]},{"name":"Bip01 L Finger21","children":[57],"rotation":[1.394053e-8,-2.0448072e-8,0.13664584,0.99061996],"scale":[1,1,1.0000001],"translation":[4.3615723,0,0]},{"name":"Bip01 L Finger22","children":[58],"rotation":[6.8213923e-9,3.115005e-8,0.10840519,0.9941068],"translation":[3.6637955,-0.0000076293945,0]},{"name":"Bip01 L Finger2Nub","rotation":[5.820766e-11,0,-7.450581e-9,1],"translation":[6.749504,0.000005722046,0]},{"name":"Bip01 L Finger1","children":[60],"rotation":[0.0017062975,0.053799707,0.32996148,0.94245857],"translation":[9.507854,-1.0138092,-3.5017657]},{"name":"Bip01 L Finger11","children":[61],"rotation":[-1.47418175e-8,2.995163e-8,0.099726014,0.99501497],"scale":[1,1.0000001,1.0000001],"translation":[4.6674347,0.0000076293945,0]},{"name":"Bip01 L Finger12","children":[62],"rotation":[7.388436e-9,-1.1258571e-8,0.12098252,0.9926546],"scale":[0.99999994,1,0.99999994],"translation":[3.5070953,-0.0000038146973,0.0000019073486]},{"name":"Bip01 L Finger1Nub","rotation":[-4.6566118e-10,-1.8626451e-9,0,1],"scale":[1,1,0.99999994],"translation":[5.953102,0.0000019073486,9.536743e-7]},{"name":"Bip01 L Finger0","children":[64],"rotation":[0.55689687,0.39455768,-0.0058644586,0.7308596],"scale":[0.9999999,1,0.99999994],"translation":[1.8596802,1.3621597,-3.0327528]},{"name":"Bip01 L Finger01","children":[65],"rotation":[-4.734072e-9,3.0298065e-8,0.1801569,0.98363787],"scale":[1,1,1.0000001],"translation":[3.9549713,-0.0000038146973,-0.0000076293945]},{"name":"Bip01 L Finger02","children":[66],"rotation":[-7.672996e-9,1.534599e-8,0.23902564,0.97101325],"scale":[1.0000001,1,1],"translation":[4.319397,0,0]},{"name":"Bip01 L Finger0Nub","rotation":[-1.110223e-16,-3.7252903e-9,3.7252899e-9,1],"scale":[1,1.0000001,1],"translation":[6.6467133,0,0]},{"name":"Bip01 Head","children":[68,74],"rotation":[-7.964606e-9,7.6076985e-9,-0.0106244795,0.99994355],"scale":[1.0000001,1.0000001,1],"translation":[7.447113,0,-4.656613e-8]},{"name":"Bip01 Ponytail1","children":[69],"rotation":[-1.7329693e-8,-0.0000027720196,0.99964017,-0.026823334],"scale":[1.0000001,1,1.0000001],"translation":[11.311676,-10.084009,-0.000018250663]},{"name":"Bip01 Ponytail11","children":[70],"rotation":[7.138876e-10,4.3077865e-8,-0.0128170345,0.99991786],"scale":[0.99999994,1,0.9999999],"translation":[11.869186,-0.00944519,3.6065467e-7]},{"name":"Bip01 Ponytail12","children":[71],"rotation":[-1.6583936e-9,-4.044912e-9,-0.012817025,0.99991786],"scale":[1.0000001,1.0000001,1],"translation":[11.869171,-0.009449005,5.403999e-7]},{"name":"Bip01 Ponytail13","children":[72],"rotation":[1.1057592e-9,8.694058e-8,-0.0128170485,0.99991786],"scale":[1.0000001,1,1.0000001],"translation":[11.8691635,-0.009449005,-3.9674342e-7]},{"name":"Bip01 Ponytail14","children":[73],"rotation":[-7.602983e-9,-4.2842675e-8,-0.012817035,0.99991786],"scale":[0.9999999,1,0.9999999],"translation":[11.869194,-0.00944519,8.228235e-7]},{"name":"Bip01 Ponytail1Nub","rotation":[0.7073883,0.70682514,9.494156e-7,-0.0000010378645],"scale":[0.99999994,1,1],"translation":[11.869438,-0.0000076293945,-0.0000010207295]},{"name":"Bip01 HeadNub","rotation":[-5.3290705e-15,-1.4210855e-14,0,1],"translation":[17.239517,0,-4.5751221e-7]},{"name":"Bone09","children":[76],"rotation":[0.3280765,0.626391,0.40150517,0.58206],"scale":[0.9999998,0.9999999,0.99999994],"translation":[4.5243683,7.1467113,-6.281477]},{"name":"Bone10","rotation":[-3.552712e-15,-3.3881318e-21,1.4901159e-8,1],"scale":[1.0000001,1.0000001,1],"translation":[7.420822,0.0000010728836,-0.000015258789]},{"name":"Bone09(mirrored)","children":[78],"rotation":[0.58206016,0.4015045,0.6263917,0.32807544],"scale":[0.99999994,0.99999994,0.99999994],"translation":[4.524353,7.146696,6.2762904]},{"name":"Bone10(mirrored)","rotation":[0,1.3322676e-15,1.5881868e-22,1],"translation":[7.420822,-0.000005841255,0]},{"name":"Bone11(mirrored)","children":[80],"rotation":[-0.023657996,0.7067106,0.68313104,0.18257177],"scale":[0.99999994,1,0.9999999],"translation":[5.8690186,-0.2510376,-14.075713]},{"name":"Bone12(mirrored)","children":[81],"rotation":[-2.5832685e-7,1.2167197e-8,0.04668233,0.99890983],"scale":[1,0.99999994,1],"translation":[17.457245,0,0.0000072236726]},{"name":"Bone13(mirrored)","rotation":[2.3050335e-7,1.4416912e-8,3.7252899e-9,1],"scale":[1.0000001,1.0000001,1],"translation":[23.633522,0.0000038146973,-0.0000068680165]},{"name":"Bone11","children":[83],"rotation":[0.18257149,0.6831304,0.70671123,-0.023658501],"scale":[0.99999994,1,0.99999994],"translation":[5.869049,-0.25108147,14.070653]},{"name":"Bone12","children":[84],"rotation":[-2.09891e-8,-5.9989875e-9,-0.04668233,0.9989098],"scale":[0.99999994,0.99999994,1],"translation":[17.457245,0.0000076293945,-7.713734e-7]},{"name":"Bone13","rotation":[-8.881784e-16,0,0,1],"translation":[23.633537,0,0.0000012341625]},{"name":"Bone14","children":[86],"rotation":[0.25886533,0.9659134,7.1290503e-7,1.7599451e-7],"scale":[1,1.0000001,1.0000001],"translation":[0.4197235,12.423653,-0.0026932247]},{"name":"Bone15","children":[87],"rotation":[-2.4129886e-7,-6.6645383e-9,0.0005210193,0.9999999],"scale":[0.99999994,0.9999998,0.9999999],"translation":[17.940567,0.0000076293945,-0.0000014215548]},{"name":"Bone16","translation":[21.299404,0.000011444092,-3.5013363e-7]},{"name":"Bone17","children":[89],"rotation":[-0.06420652,0.99793667,7.145989e-7,-4.642669e-8],"scale":[1,1,1.0000001],"translation":[4.7298355,-7.638111,-0.00272303]},{"name":"Bone18","children":[90],"rotation":[7.874027e-9,4.6156455e-8,-0.026900347,0.99963814],"scale":[0.99999976,0.9999998,0.9999999],"translation":[18.576607,0.000076293945,-5.7848365e-7]},{"name":"Bone19","children":[91],"rotation":[4.996484e-9,-4.3345313e-8,0.014860266,0.9998896],"scale":[1,0.99999994,1],"translation":[30.001755,-0.0000038146973,0.0000031751933]},{"name":"Bone20","rotation":[8.881784e-16,-1.7763568e-15,0,1],"translation":[35.05255,-0.0000076293945,5.4291377e-7]},{"name":"Bip01 R Thigh","children":[93],"rotation":[0.13751936,0.9904304,-0.0024411043,0.011403585],"scale":[0.9999999,1,1],"translation":[-6.3321686,1.4771805,-8.637808]},{"name":"Bip01 R Calf","children":[94],"rotation":[-3.223859e-10,7.0338744e-9,-0.117777154,0.9930401],"scale":[1,0.99999994,1],"translation":[41.521877,-4.7683716e-7,-9.536743e-7]},{"name":"Bip01 R Foot","children":[95],"rotation":[0.032254852,0.014659489,0.09333074,0.9950046],"scale":[1,0.99999994,1],"translation":[42.97798,9.536743e-7,-9.536743e-7]},{"name":"Bip01 R Toe0","children":[96],"rotation":[-0.020767532,0.020767588,0.7068018,0.7068017],"translation":[14.826113,10.102412,-9.536743e-7]},{"name":"Bip01 R Toe0Nub","rotation":[0,2.1510091e-16,-6.938895e-18,1],"translation":[9.863438,-1.7508864e-7,0]},{"name":"Bip01 L Thigh","children":[98],"rotation":[0.13751933,0.9904304,0.0024438424,-0.011403784],"scale":[0.9999999,0.99999994,1],"translation":[-6.3321686,1.4771328,8.6378145]},{"name":"Bip01 L Calf","children":[99],"rotation":[9.583654e-9,-1.4067749e-9,-0.117777154,0.9930401],"translation":[41.521877,7.1525574e-7,9.536743e-7]},{"name":"Bip01 L Foot","children":[100],"rotation":[-0.03225487,-0.014659419,0.09333075,0.9950046],"translation":[42.977978,0,9.536743e-7]},{"name":"Bip01 L Toe0","children":[101],"rotation":[0.0207676,-0.020767586,0.7068018,0.7068017],"translation":[14.826113,10.102411,-9.536743e-7]},{"name":"Bip01 L Toe0Nub","rotation":[1,2.6714742e-16,-4.6946374e-17,4.1633363e-17],"scale":[0.99999994,-1,0.99999994],"translation":[9.863439,-6.984919e-8,0]},{"mesh":0,"skin":0},{"mesh":1,"skin":1},{"mesh":2,"skin":2}],"scene":0,"scenes":[{"extensions":{"EXT_lslib_profile":{"MetadataVersion":3,"LSLibMajor":1,"LSLibMinor":20,"LSLibPatch":4,"BoneOrder":{"Bip01":1,"Bip01 Pelvis":2,"Bip01 Spine":3,"Bip01 Spine1":4,"Bip01 Spine2":5,"Bip01 Neck":6,"Bip01 R Clavicle":7,"Bip01 R UpperArm":8,"Bip01 R Forearm":9,"Bip01 R Hand":10,"equip_right":11,"Bone11(mirrored)":12,"Bone12(mirrored)":13,"Bone13(mirrored)":14,"Bone11":15,"Bone12":16,"Bone13":17,"Bone14":18,"Bone15":19,"Bone16":20,"Bone17":21,"Bone18":22,"Bone19":23,"Bone20":24,"Bip01 R Thigh":25,"Bip01 R Calf":26,"Bip01 R Foot":27,"Bip01 R Toe0":28,"Bip01 R Toe0Nub":29,"Bip01 L Thigh":30,"Bip01 L Calf":31,"Bip01 L Foot":32,"Bip01 L Toe0":33,"Bip01 L Toe0Nub":34,"Bone09":35,"Bone10":36,"Bone09(mirrored)":37,"Bone10(mirrored)":38,"Bone21(mirrored)":39,"Bone22(mirrored)":40,"Bone05":41,"Bone06":42,"Bone07":43,"Bone08":44,"Bip01 R Finger4":45,"Bip01 R Finger41":46,"Bip01 R Finger42":47,"Bip01 R Finger4Nub":48,"Bip01 R Finger3":49,"Bip01 R Finger31":50,"Bip01 R Finger32":51,"Bip01 R Finger3Nub":52,"Bip01 R Finger2":53,"Bip01 R Finger21":54,"Bip01 R Finger22":55,"Bip01 R Finger2Nub":56,"Bip01 R Finger1":57,"Bip01 R Finger11":58,"Bip01 R Finger12":59,"Bip01 R Finger1Nub":60,"Bip01 R Finger0":61,"Bip01 R Finger01":62,"Bip01 R Finger02":63,"Bip01 R Finger0Nub":64,"Bip01 L Clavicle":65,"Bone21":66,"Bone22":67,"Bone01":68,"Bone02":69,"Bone03":70,"Bone04":71,"Bip01 L UpperArm":72,"Bip01 L Forearm":73,"Bip01 L Hand":74,"Bip01 L Finger4":75,"Bip01 L Finger41":76,"Bip01 L Finger42":77,"Bip01 L Finger4Nub":78,"Bip01 L Finger3":79,"Bip01 L Finger31":80,"Bip01 L Finger32":81,"Bip01 L Finger3Nub":82,"Bip01 L Finger2":83,"Bip01 L Finger21":84,"Bip01 L Finger22":85,"Bip01 L Finger2Nub":86,"Bip01 L Finger1":87,"Bip01 L Finger11":88,"Bip01 L Finger12":89,"Bip01 L Finger1Nub":90,"Bip01 L Finger0":91,"Bip01 L Finger01":92,"Bip01 L Finger02":93,"Bip01 L Finger0Nub":94,"Bip01 Head":95,"Bip01 Ponytail1":96,"Bip01 Ponytail11":97,"Bip01 Ponytail12":98,"Bip01 Ponytail13":99,"Bip01 Ponytail14":100,"Bip01 Ponytail1Nub":101,"Bip01 HeadNub":102},"BoneScale":{"Bip01 L Toe0Nub":1,"Bone05":0.9009686,"Bone06":1.1942292,"Bip01 R Finger4Nub":1,"Bip01 R Finger3Nub":1,"Bip01 R Finger2Nub":1,"Bip01 R Finger1Nub":1,"Bip01 R Finger0Nub":1,"Bone01":0.9009692,"Bone02":1.194229},"ModelName":"Bip01"}},"nodes":[0,102,103,104]}],"skins":[{"inverseBindMatrices":18,"joints":[1,2,3,4,5,67,37,44,45,63,64,65,59,60,61,46,55,56,57,51,52,53,47,48,49,6,7,8,27,28,29,23,24,25,9,19,20,21,15,16,17,11,12,13,77,75,97,98,99,100,92,93,94,95,88,89,90,85,86,0,10,79,80,81,82,83,84,87,91,96,101,76,78,31,32,33,34,35,36,14,18,22,26,30,38,39,40,41,42,43,50,54,58,62,66,68,69,70,71,72,73,74]},{"inverseBindMatrices":19,"joints":[4,5,37,40,6,33,0,1,2,3,7,8,9,10,79,80,81,82,83,84,85,86,87,88,89,90,91,92,93,94,95,96,97,98,99,100,101,75,76,77,78,31,32,34,35,36,11,12,13,14,15,16,17,18,19,20,21,22,23,24,25,26,27,28,29,30,38,39,41,42,43,44,45,46,47,48,49,50,51,52,53,54,55,56,57,58,59,60,61,62,63,64,65,66,67,68,69,70,71,72,73,74]},{"inverseBindMatrices":20,"joints":[67,0,1,2,3,4,5,6,7,8,9,10,79,80,81,82,83,84,85,86,87,88,89,90,91,92,93,94,95,96,97,98,99,100,101,75,76,77,78,31,32,33,34,35,36,11,12,13,14,15,16,17,18,19,20,21,22,23,24,25,26,27,28,29,30,37,38,39,40,41,42,43,44,45,46,47,48,49,50,51,52,53,54,55,56,57,58,59,60,61,62,63,64,65,66,68,69,70,71,72,73,74]}]}